# xmcd
#
# Track frame offsets: 
#        150
#        12125
#        24139
#        37444
#        58125
#        74455
#        87051
#        99104
#        117093
#        133096
#        149923
#        163735
#        175684
#        182471
#
# Disc length: 2585 seconds
#
# Revision: 0
# Processed by: cddbd v1.5.2PL0 Copyright (c) Steve Scherf et al.
# Submitted via: ExactAudioCopy v0.95b4
#
DISCID=bb0a170e
DTITLE=Danni Leigh - A Shot Of Whiskey And A Prayer
DYEAR=2001
DGENRE=Country
TTITLE0=Chain Gang
TTITLE1=Longnecks, Cigarettes
TTITLE2=Trying To Get Over You
TTITLE3=What'cha Gonna Do?
TTITLE4=Shiver Of Lonesome
TTITLE5=Honey I Do
TTITLE6=Little Things
TTITLE7=Can't Build A Better Love
TTITLE8=I Don't Feel That Way Anymore
TTITLE9=Back In Your Arms Again
TTITLE10=Cruel Heart
TTITLE11=Never Ending Love
TTITLE12=Holland Holiday
TTITLE13=Down In The Bluegrass
EXTD=
EXTT0=
EXTT1=
EXTT2=
EXTT3=
EXTT4=
EXTT5=
EXTT6=
EXTT7=
EXTT8=
EXTT9=
EXTT10=
EXTT11=
EXTT12=
EXTT13=
PLAYORDER=
